<svg version="1.1" xmlns="http://www.w3.org/2000/svg" xmlns:xlink="http://www.w3.org/1999/xlink" width="48" height="48"><defs><linearGradient x1="12.92774" y1="11.67151" x2="61.84029" y2="63.09652" gradientUnits="userSpaceOnUse" id="color-1"><stop offset="0" stop-color="#000000" stop-opacity="0.3"></stop><stop offset="1" stop-color="#000000" stop-opacity="0"></stop></linearGradient><filter id="dropshadow-base"><feColorMatrix type="matrix" values="0 0 0 0 0  0 0 0 0 0  0 0 0 0 0  0 0 0 .8 0"></feColorMatrix> <feOffset dx="0" dy="1"></feOffset> <feGaussianBlur stdDeviation="1"></feGaussianBlur> <feComposite in="SourceGraphic"></feComposite></filter><filter id="dropshadow-banner" x="-10%" y="-10%" width="120%" height="130%"><feColorMatrix type="matrix" values="0 0 0 0 0  0 0 0 0 0  0 0 0 0 0  0 0 0 .4 0"></feColorMatrix> <feOffset dx="0" dy="1"></feOffset> <feGaussianBlur stdDeviation="0.5"></feGaussianBlur> <feComposite in="SourceGraphic"></feComposite></filter></defs><g fill="none" fill-rule="nonzero" stroke="none" stroke-width="none" stroke-linecap="butt" stroke-linejoin="miter" stroke-miterlimit="10" stroke-dasharray="" stroke-dashoffset="0" font-family="none" font-weight="none" font-size="none" text-anchor="none" style="mix-blend-mode: normal"><path d="M2,24c0,-12.15026 9.84974,-22 22,-22c12.15026,0 22,9.84974 22,22c0,12.15026 -9.84974,22 -22,22c-12.15026,0 -22,-9.84974 -22,-22z" id="base 1 5" fill="#e65100" stroke-width="1"></path><path d="M17.12642,34.76531c-0.22762,-0.22762 -0.4214,-0.47297 -0.58132,-0.73603c-0.63641,-1.04673 -0.95461,-2.22745 -0.95461,-3.54216v-2.51205c0,-0.14328 -0.00436,-0.28154 -0.01309,-0.41477l-2.64966,-2.64966v-1.8213c1.77517,0 2.66275,-1.01325 2.66275,-3.03975v-2.53734c0,-1.32306 0.3182,-2.50378 0.95461,-3.54216c0.63641,-1.04673 1.8087,-1.81293 3.51687,-2.2986l10.3592,10.3592c-0.23192,-0.57467 -0.34787,-1.24745 -0.34787,-2.01835v-2.49966c0,-1.02997 -0.1884,-1.94267 -0.56522,-2.73811c-0.14449,-0.30826 -0.33454,-0.58019 -0.57015,-0.8158c-0.37882,-0.37882 -0.87541,-0.66374 -1.48977,-0.85477l0.48987,-1.4319c1.28088,0.36238 2.2587,0.88094 2.93343,1.55567l14.76678,14.76678c-1.641,8.9464 -8.6938,16.0003 -17.63963,17.64292z" fill="url(#color-1)" stroke-width="1"></path><path d="M35.07223,23.08935v1.8213c-1.77517,0 -2.66275,1.01325 -2.66275,3.03975v2.53733c0,1.31468 -0.3182,2.4954 -0.95461,3.54216c-0.62803,1.04673 -1.80032,1.81293 -3.51688,2.2986l-0.48987,-1.44447c0.9881,-0.30982 1.67056,-0.86249 2.04739,-1.65801c0.38519,-0.79551 0.57778,-1.70821 0.57778,-2.7381v-2.49966c0,-1.96784 0.76201,-3.29504 2.28603,-3.98161c-1.52402,-0.68665 -2.28603,-2.01807 -2.28603,-3.99425v-2.49966c0,-1.02997 -0.18841,-1.94267 -0.56522,-2.7381c-0.37681,-0.80387 -1.06346,-1.36073 -2.05993,-1.67057l0.48987,-1.43191c1.71667,0.48567 2.88897,1.25187 3.51688,2.2986c0.6364,1.03835 0.95461,2.21907 0.95461,3.54216v2.56237c0,2.00964 0.88758,3.01447 2.66275,3.01447zM12.92774,24.91065v-1.8213c1.77517,0 2.66275,-1.01325 2.66275,-3.03975v-2.53733c0,-1.32306 0.3182,-2.50378 0.95461,-3.54216c0.6364,-1.04673 1.8087,-1.81293 3.51688,-2.2986l0.48987,1.43191c-0.99648,0.30982 -1.68312,0.86668 -2.05993,1.67057c-0.37681,0.79551 -0.56522,1.70821 -0.56522,2.7381v2.48702c0,1.9176 -0.69921,3.25324 -2.09763,4.00689c1.39842,0.73689 2.09763,2.07665 2.09763,4.01929v2.46198c0,1.02997 0.18841,1.94267 0.56522,2.7381c0.37681,0.79543 1.06346,1.3481 2.05993,1.65801l-0.48987,1.44447c-1.70825,-0.48567 -2.88054,-1.25187 -3.51688,-2.2986c-0.6364,-1.04673 -0.95461,-2.22745 -0.95461,-3.54216v-2.51206c0,-2.04319 -0.88758,-3.06478 -2.66275,-3.06478z" fill="none" stroke-width="0"></path><path d="M35.07226,23.08972c-0.00001,0 -0.00002,0 -0.00002,0l0,-0.00036zM35.07223,24.91065c-1.77517,0 -2.66275,1.01325 -2.66275,3.03975v2.53733c0,1.31468 -0.3182,2.4954 -0.95461,3.54216c-0.62803,1.04673 -1.80032,1.81293 -3.51688,2.2986l-0.48987,-1.44447c0.9881,-0.30982 1.67056,-0.86249 2.04739,-1.65801c0.38519,-0.79551 0.57778,-1.70821 0.57778,-2.7381v-2.49966c0,-1.96784 0.76201,-3.29504 2.28603,-3.98161c-1.52402,-0.68665 -2.28603,-2.01807 -2.28603,-3.99425v-2.49966c0,-1.02997 -0.18841,-1.94267 -0.56522,-2.7381c-0.37681,-0.80387 -1.06346,-1.36073 -2.05993,-1.67057l0.48987,-1.43191c1.71667,0.48567 2.88897,1.25187 3.51688,2.2986c0.6364,1.03835 0.95461,2.21907 0.95461,3.54216v2.56237c0,2.00964 0.88758,3.01446 2.66273,3.01447zM12.92774,23.08935c1.77517,0 2.66275,-1.01325 2.66275,-3.03975v-2.53733c0,-1.32306 0.3182,-2.50378 0.95461,-3.54216c0.6364,-1.04673 1.8087,-1.81293 3.51688,-2.2986l0.48987,1.43191c-0.99648,0.30982 -1.68312,0.86668 -2.05993,1.67057c-0.37681,0.79551 -0.56522,1.70821 -0.56522,2.7381v2.48702c0,1.9176 -0.69921,3.25324 -2.09763,4.00689c1.39842,0.73689 2.09763,2.07665 2.09763,4.01929v2.46198c0,1.02997 0.18841,1.94267 0.56522,2.7381c0.37681,0.79543 1.06346,1.3481 2.05993,1.65801l-0.48987,1.44447c-1.70825,-0.48567 -2.88054,-1.25187 -3.51688,-2.2986c-0.6364,-1.04673 -0.95461,-2.22745 -0.95461,-3.54216v-2.51206c0,-2.04319 -0.88758,-3.06478 -2.66275,-3.06478z" fill="#ffffff" stroke-width="0"></path><path d="M2,24c0,-12.15026 9.84974,-22 22,-22c12.15026,0 22,9.84974 22,22c0,12.15026 -9.84974,22 -22,22c-12.15026,0 -22,-9.84974 -22,-22z" id="base 1 1 1" fill="none" stroke-width="1"></path><g fill="#000000" stroke-width="1" font-family="Roboto, sans-serif" font-weight="400" font-size="14" text-anchor="start"><g><g></g></g></g><rect x="2" y="2" width="44" height="22" fill="none" stroke-width="1"></rect><path d="M2,24v-22h44v22z" fill="none" stroke-width="1"></path><path d="M2,24v-22h44v22z" fill="none" stroke-width="1"></path><path d="M2,24v-22h44v22z" fill="none" stroke-width="1"></path><path d="M2,24v-22h44v22z" fill="none" stroke-width="1"></path></g></svg>