<svg version="1.1" xmlns="http://www.w3.org/2000/svg" xmlns:xlink="http://www.w3.org/1999/xlink" width="48" height="48"><defs><linearGradient x1="9.32155" y1="9.37649" x2="65.76042" y2="65.41842" gradientUnits="userSpaceOnUse" id="color-1"><stop offset="0" stop-color="#000000" stop-opacity="0.3"></stop><stop offset="1" stop-color="#000000" stop-opacity="0"></stop></linearGradient><filter id="dropshadow-base"><feColorMatrix type="matrix" values="0 0 0 0 0  0 0 0 0 0  0 0 0 0 0  0 0 0 .8 0"></feColorMatrix> <feOffset dx="0" dy="1"></feOffset> <feGaussianBlur stdDeviation="1"></feGaussianBlur> <feComposite in="SourceGraphic"></feComposite></filter><filter id="dropshadow-banner" x="-10%" y="-10%" width="120%" height="130%"><feColorMatrix type="matrix" values="0 0 0 0 0  0 0 0 0 0  0 0 0 0 0  0 0 0 .4 0"></feColorMatrix> <feOffset dx="0" dy="1"></feOffset> <feGaussianBlur stdDeviation="0.5"></feGaussianBlur> <feComposite in="SourceGraphic"></feComposite></filter></defs><g fill="none" fill-rule="nonzero" stroke="none" stroke-width="none" stroke-linecap="butt" stroke-linejoin="miter" stroke-miterlimit="10" stroke-dasharray="" stroke-dashoffset="0" font-family="none" font-weight="none" font-size="none" text-anchor="none" style="mix-blend-mode: normal"><path d="M2,24c0,-12.15026 9.84974,-22 22,-22c12.15026,0 22,9.84974 22,22c0,12.15026 -9.84974,22 -22,22c-12.15026,0 -22,-9.84974 -22,-22z" id="base 1 5" fill="#1ebbee" stroke-width="1"></path><path d="M35.0167,10.57103l10.83158,10.83158c0.10019,0.85186 0.15172,1.71861 0.15172,2.59739c0,12.15026 -9.84974,22 -22,22c-1.02351,0 -2.03069,-0.06989 -3.01704,-0.20517l-10.65225,-10.65225c-1.06941,-1.06941 -1.44841,-3.23846 -0.34338,-7.2493c0.63206,-2.14903 1.833,-3.79242 2.90751,-5.68863c0.13524,-0.20901 0.27288,-0.41683 0.41302,-0.62357l-1.00717,-1.00717c1.64337,-6.4471 6.69992,-9.55057 12.51496,-9.48103c1.51696,-0.72055 3.28676,-1.28942 5.05655,-1.64337c0.30351,0 3.52198,-0.501 5.14449,1.12151z" fill="url(#color-1)" stroke-width="1"></path><path d="M36.31931,23.35504c0,-2.14903 -0.55622,-4.17166 -1.51697,-5.94145c4.17166,-9.35462 -4.42448,-7.96407 -4.93014,-7.96407c-1.76979,0.35396 -3.53959,0.92282 -5.05655,1.64338c-5.81503,-0.06953 -10.87159,3.03393 -12.51497,9.48104c3.03393,-3.41317 5.18297,-4.80372 6.4471,-5.30938c-0.26547,0.24019 -0.53094,0.49301 -0.79641,0.74584c-2.02262,2.02262 -3.666,4.04524 -5.05655,6.19428c-1.07452,1.89621 -2.27545,3.53959 -2.90752,5.68862c-3.41317,12.38855 7.332,7.20559 8.84897,6.32069c1.64338,0.80905 3.41317,1.2515 5.43579,1.2515c5.30938,0 9.86028,-3.41317 11.50366,-8.09048h-6.4471c-3.03393,4.80372 -10.23952,2.65469 -10.49235,-2.52828h17.4451c0.06574,-0.5183 0.10113,-1.03659 0.10113,-1.51697zM34.04386,11.34573c1.04923,0.70792 1.89621,1.76979 0.44245,5.56221c-1.39055,-2.27545 -3.41317,-4.04524 -5.94145,-4.93014c1.12508,-0.54358 3.91883,-1.64338 5.56221,-0.63207zM11.66861,34.22662c-0.85961,-0.87226 -1.01131,-3.03393 0.8849,-6.95276c0.9481,2.7811 2.90752,5.05655 5.30938,6.4471c-1.22621,0.66999 -4.42448,2.14903 -6.19428,0.41717zM18.74779,21.58524c0.09734,-2.7811 2.52828,-5.05655 5.56221,-5.05655c3.03393,0 5.43579,2.27545 5.56221,5.05655h-10.998z" fill="none" stroke-width="0"></path><path d="M36.38251,23.32975c0,0.48037 -0.0354,0.99867 -0.10113,1.51697h-17.4451c0.25283,5.18297 7.45841,7.332 10.49235,2.52828h6.4471c-1.64338,4.67731 -6.19428,8.09048 -11.50366,8.09048c-2.02262,0 -3.79241,-0.44245 -5.43579,-1.2515c-1.51697,0.8849 -12.26214,6.06786 -8.84897,-6.32069c0.63207,-2.14903 1.833,-3.79241 2.90752,-5.68862c1.39055,-2.14903 3.03393,-4.17166 5.05655,-6.19428c0.26547,-0.25283 0.53094,-0.50566 0.79641,-0.74584c-1.26414,0.50566 -3.41317,1.89621 -6.4471,5.30938c1.64338,-6.4471 6.69993,-9.55056 12.51497,-9.48104c1.51697,-0.72056 3.28676,-1.28942 5.05655,-1.64338c0.50566,0 9.10179,-1.39055 4.93014,7.96407c0.96074,1.76979 1.51697,3.79241 1.51697,5.94145zM34.10706,11.34573c-1.64338,-1.01131 -4.43712,0.08849 -5.56221,0.63207c2.52828,0.8849 4.5509,2.65469 5.94145,4.93014c1.45376,-3.79241 0.60679,-4.85429 -0.44245,-5.56221zM11.66861,34.13813c1.76979,1.73187 4.96806,0.25283 6.19428,-0.41717c-2.40186,-1.39055 -4.36128,-3.666 -5.30938,-6.4471c-1.89621,3.91883 -1.74451,6.0805 -0.8849,6.95276zM29.8722,21.58524c-0.12641,-2.7811 -2.52828,-5.05655 -5.56221,-5.05655c-3.03393,0 -5.46487,2.27545 -5.56221,5.05655z" fill="#ffffff" stroke-width="0"></path><path d="M2,24c0,-12.15026 9.84974,-22 22,-22c12.15026,0 22,9.84974 22,22c0,12.15026 -9.84974,22 -22,22c-12.15026,0 -22,-9.84974 -22,-22z" id="base 1 1 1" fill="none" stroke-width="1"></path><g fill="#000000" stroke-width="1" font-family="Roboto, sans-serif" font-weight="400" font-size="14" text-anchor="start"></g><rect x="2" y="2" width="44" height="22" fill="none" stroke-width="1"></rect><path d="M2,24v-22h44v22z" fill="none" stroke-width="1"></path><path d="M2,24v-22h44v22z" fill="none" stroke-width="1"></path><path d="M2,24v-22h44v22z" fill="none" stroke-width="1"></path><path d="M2,24v-22h44v22z" fill="none" stroke-width="1"></path></g></svg>