<svg version="1.1" xmlns="http://www.w3.org/2000/svg" xmlns:xlink="http://www.w3.org/1999/xlink" width="48" height="48"><defs><linearGradient x1="11.08449" y1="11.08449" x2="64.95812" y2="64.95812" gradientUnits="userSpaceOnUse" id="color-1"><stop offset="0" stop-color="#000000" stop-opacity="0.3"></stop><stop offset="1" stop-color="#000000" stop-opacity="0"></stop></linearGradient><filter id="dropshadow-base"><feColorMatrix type="matrix" values="0 0 0 0 0  0 0 0 0 0  0 0 0 0 0  0 0 0 .8 0"></feColorMatrix> <feOffset dx="0" dy="1"></feOffset> <feGaussianBlur stdDeviation="1"></feGaussianBlur> <feComposite in="SourceGraphic"></feComposite></filter><filter id="dropshadow-banner" x="-10%" y="-10%" width="120%" height="130%"><feColorMatrix type="matrix" values="0 0 0 0 0  0 0 0 0 0  0 0 0 0 0  0 0 0 .4 0"></feColorMatrix> <feOffset dx="0" dy="1"></feOffset> <feGaussianBlur stdDeviation="0.5"></feGaussianBlur> <feComposite in="SourceGraphic"></feComposite></filter></defs><g fill="none" fill-rule="nonzero" stroke="none" stroke-width="none" stroke-linecap="butt" stroke-linejoin="miter" stroke-miterlimit="10" stroke-dasharray="" stroke-dashoffset="0" font-family="none" font-weight="none" font-size="none" text-anchor="none" style="mix-blend-mode: normal"><path d="M2,24c0,-12.15026 9.84974,-22 22,-22c12.15026,0 22,9.84974 22,22c0,12.15026 -9.84974,22 -22,22c-12.15026,0 -22,-9.84974 -22,-22z" id="base 1 5" fill="#2979ff" stroke-width="1"></path><path d="M14.8679,33.13285c-2.33783,-2.33783 -3.78341,-5.56737 -3.78341,-9.13285c0,-7.13582 5.77969,-12.91551 12.91551,-12.91551c3.56549,0 6.79502,1.44558 9.13285,3.78341l12.59601,12.59601c-1.4829,9.37614 -8.88882,16.78206 -18.26496,18.26496z" fill="url(#color-1)" stroke-width="1"></path><path d="M24,11.08449c-7.13582,0 -12.91551,5.77969 -12.91551,12.91551c0,7.12936 5.77969,12.91551 12.91551,12.91551c7.12936,0 12.91551,-5.78615 12.91551,-12.91551c0,-7.13582 -5.78615,-12.91551 -12.91551,-12.91551zM21.4169,30.45776l-6.45776,-6.45776l1.82754,-1.82754l4.63021,4.63021l9.79642,-9.79642l1.82754,1.82754z" fill="none" stroke-width="0"></path><path d="M36.91551,24c0,7.12936 -5.78615,12.91551 -12.91551,12.91551c-7.13582,0 -12.91551,-5.78615 -12.91551,-12.91551c0,-7.13582 5.77969,-12.91551 12.91551,-12.91551c7.12936,0 12.91551,5.77969 12.91551,12.91551zM33.04086,18.8338l-1.82754,-1.82754l-9.79642,9.79642l-4.63021,-4.63021l-1.82754,1.82754l6.45776,6.45776z" fill="#ffffff" stroke-width="0"></path><path d="M2,24c0,-12.15026 9.84974,-22 22,-22c12.15026,0 22,9.84974 22,22c0,12.15026 -9.84974,22 -22,22c-12.15026,0 -22,-9.84974 -22,-22z" id="base 1 1 1" fill="none" stroke-width="1"></path><g fill="#000000" stroke-width="1" font-family="Roboto, sans-serif" font-weight="400" font-size="14" text-anchor="start"></g><rect x="2" y="2" width="44" height="22" fill="none" stroke-width="1"></rect><path d="M2,24v-22h44v22z" fill="none" stroke-width="1"></path><path d="M2,24v-22h44v22z" fill="none" stroke-width="1"></path><path d="M2,24v-22h44v22z" fill="none" stroke-width="1"></path><path d="M2,24v-22h44v22z" fill="none" stroke-width="1"></path></g></svg>