<svg version="1.1" xmlns="http://www.w3.org/2000/svg" xmlns:xlink="http://www.w3.org/1999/xlink" width="48" height="48"><defs><linearGradient x1="12.23188" y1="12.23217" x2="61.31952" y2="61.31917" gradientUnits="userSpaceOnUse" id="color-1"><stop offset="0" stop-color="#000000" stop-opacity="0.3"></stop><stop offset="1" stop-color="#000000" stop-opacity="0"></stop></linearGradient><filter id="dropshadow-base"><feColorMatrix type="matrix" values="0 0 0 0 0  0 0 0 0 0  0 0 0 0 0  0 0 0 .8 0"></feColorMatrix> <feOffset dx="0" dy="1"></feOffset> <feGaussianBlur stdDeviation="1"></feGaussianBlur> <feComposite in="SourceGraphic"></feComposite></filter><filter id="dropshadow-banner" x="-10%" y="-10%" width="120%" height="130%"><feColorMatrix type="matrix" values="0 0 0 0 0  0 0 0 0 0  0 0 0 0 0  0 0 0 .4 0"></feColorMatrix> <feOffset dx="0" dy="1"></feOffset> <feGaussianBlur stdDeviation="0.5"></feGaussianBlur> <feComposite in="SourceGraphic"></feComposite></filter></defs><g fill="none" fill-rule="nonzero" stroke="none" stroke-width="none" stroke-linecap="butt" stroke-linejoin="miter" stroke-miterlimit="10" stroke-dasharray="" stroke-dashoffset="0" font-family="none" font-weight="none" font-size="none" text-anchor="none" style="mix-blend-mode: normal"><path d="M2,24c0,-12.15026 9.84974,-22 22,-22c12.15026,0 22,9.84974 22,22c0,12.15026 -9.84974,22 -22,22c-12.15026,0 -22,-9.84974 -22,-22z" id="base 1 5" fill="#e91e63" stroke-width="1"></path><path d="M14.02647,22.7428c-1.19934,-1.20031 -1.79459,-2.76936 -1.79459,-4.34036c0,-0.59231 0.08433,-1.18463 0.253,-1.75732l3.69803,3.69705c1.875,0.40991 4.561,-2.30747 4.15992,-4.15992l-3.69803,-3.69803l0.00001,-0.00002c0.5727,-0.1677 1.16501,-0.25203 1.75635,-0.25203c1.57199,0 3.14103,0.59428 4.34232,1.79459l20.55125,20.55125c-2.01573,3.66897 -5.04752,6.7008 -8.71646,8.71658z" fill="url(#color-1)" stroke-width="1"></path><path d="M16.64479,12.48422l3.69803,3.69803c0.40109,1.85245 -2.28492,4.56983 -4.15992,4.15992l-3.69803,-3.69705c-0.16867,0.5727 -0.25301,1.16501 -0.25301,1.75733c0,1.571 0.59525,3.14004 1.79459,4.34036c1.32486,1.32486 3.10278,1.92011 4.83559,1.78576c0.91495,-0.07061 1.81616,0.26379 2.46535,0.91299l9.47504,9.47504c0.56682,0.56682 1.31113,0.8512 2.05642,0.8512c1.62886,0 2.94293,-1.33761 2.90861,-2.97137c-0.01569,-0.72274 -0.30008,-1.44156 -0.8512,-1.99366l-9.47504,-9.47602c-0.64919,-0.64821 -0.98261,-1.55041 -0.91299,-2.46535c0.13435,-1.73281 -0.46189,-3.51073 -1.78478,-4.83461c-1.2013,-1.20032 -2.77034,-1.79459 -4.34232,-1.79459c-0.59133,0 -1.18364,0.08434 -1.75634,0.25203zM33.80617,32.82585c0,0.5423 -0.43835,0.98065 -0.98065,0.98065c-0.5423,0 -0.98065,-0.43933 -0.98065,-0.98065c0,-0.54132 0.43835,-0.98065 0.98065,-0.98065c0.5423,0 0.98065,0.43835 0.98065,0.98065z" fill="none" stroke-width="0"></path><g fill="#ffffff" stroke-width="1"><path d="M16.64479,12.48422l3.69803,3.69803c0.40109,1.85245 -2.28492,4.56983 -4.15992,4.15992l-3.69803,-3.69705c-0.16867,0.5727 -0.25301,1.16501 -0.25301,1.75733c0,1.571 0.59525,3.14004 1.79459,4.34036c1.32486,1.32486 3.10278,1.92011 4.83559,1.78576c0.91495,-0.07061 1.81616,0.26379 2.46535,0.91299l9.47504,9.47504c0.56682,0.56682 1.31113,0.8512 2.05642,0.8512c1.62886,0 2.94293,-1.33761 2.90861,-2.97137c-0.01569,-0.72274 -0.30008,-1.44156 -0.8512,-1.99366l-9.47504,-9.47602c-0.64919,-0.64821 -0.98261,-1.55041 -0.91299,-2.46535c0.13435,-1.73281 -0.46189,-3.51073 -1.78478,-4.83461c-1.2013,-1.20032 -2.77034,-1.79459 -4.34232,-1.79459c-0.59133,0 -1.18364,0.08434 -1.75634,0.25203zM33.80617,32.82585c0,0.5423 -0.43835,0.98065 -0.98065,0.98065c-0.5423,0 -0.98065,-0.43933 -0.98065,-0.98065c0,-0.54132 0.43835,-0.98065 0.98065,-0.98065c0.5423,0 0.98065,0.43835 0.98065,0.98065z"></path></g><path d="M2,24c0,-12.15026 9.84974,-22 22,-22c12.15026,0 22,9.84974 22,22c0,12.15026 -9.84974,22 -22,22c-12.15026,0 -22,-9.84974 -22,-22z" id="base 1 1 1" fill="none" stroke-width="1"></path><g fill="#000000" stroke-width="1" font-family="Roboto, sans-serif" font-weight="400" font-size="14" text-anchor="start"></g><rect x="2" y="2" width="44" height="22" fill="none" stroke-width="1"></rect><path d="M2,24v-22h44v22z" fill="none" stroke-width="1"></path><path d="M2,24v-22h44v22z" fill="none" stroke-width="1"></path><path d="M2,24v-22h44v22z" fill="none" stroke-width="1"></path><path d="M2,24v-22h44v22z" fill="none" stroke-width="1"></path></g></svg>