<svg version="1.1" xmlns="http://www.w3.org/2000/svg" xmlns:xlink="http://www.w3.org/1999/xlink" width="48" height="48"><defs><linearGradient x1="8.44322" y1="18.66378" x2="60.76998" y2="50.54941" gradientUnits="userSpaceOnUse" id="color-1"><stop offset="0" stop-color="#000000" stop-opacity="0.3"></stop><stop offset="1" stop-color="#000000" stop-opacity="0"></stop></linearGradient><filter id="dropshadow-base"><feColorMatrix type="matrix" values="0 0 0 0 0  0 0 0 0 0  0 0 0 0 0  0 0 0 .8 0"></feColorMatrix> <feOffset dx="0" dy="1"></feOffset> <feGaussianBlur stdDeviation="1"></feGaussianBlur> <feComposite in="SourceGraphic"></feComposite></filter><filter id="dropshadow-banner" x="-10%" y="-10%" width="120%" height="130%"><feColorMatrix type="matrix" values="0 0 0 0 0  0 0 0 0 0  0 0 0 0 0  0 0 0 .4 0"></feColorMatrix> <feOffset dx="0" dy="1"></feOffset> <feGaussianBlur stdDeviation="0.5"></feGaussianBlur> <feComposite in="SourceGraphic"></feComposite></filter></defs><g fill="none" fill-rule="nonzero" stroke="none" stroke-width="none" stroke-linecap="butt" stroke-linejoin="miter" stroke-miterlimit="10" stroke-dasharray="" stroke-dashoffset="0" font-family="none" font-weight="none" font-size="none" text-anchor="none" style="mix-blend-mode: normal"><path d="M2,24c0,-12.15026 9.84974,-22 22,-22c12.15026,0 22,9.84974 22,22c0,12.15026 -9.84974,22 -22,22c-12.15026,0 -22,-9.84974 -22,-22z" id="base 1 9" fill="#512da8" stroke-width="1"></path><path d="M34.9147,18.66378c1.38345,0 2.50179,0.44589 3.35504,1.33767l7.45958,7.45958c-1.51276,9.57323 -9.20006,17.09314 -18.8551,18.35292l-17.55092,-17.55092c-0.58673,-0.58673 -0.88008,-1.41243 -0.88008,-2.47711v-7.12213h1.38105l4.85169,4.85169l0.00006,-4.85169h1.38829l2.01009,2.01009v-2.01009h1.38105l4.85169,4.85169l0.00006,-4.85169h1.38829l6.24014,6.24014v-6.24015z" fill="url(#color-1)" stroke-width="1"></path><path d="M31.93564,29.19159v-10.52781h2.97906c1.38345,0 2.50179,0.44589 3.35503,1.33766c0.85803,0.88696 1.28705,2.09206 1.28705,3.61528v0.62906c0,1.52328 -0.43143,2.72837 -1.29429,3.61528c-0.85803,0.88696 -2.01733,1.33044 -3.47788,1.33044zM33.33116,19.80624v8.25017h1.45336c1.12319,0 1.96916,-0.34707 2.53789,-1.04121c0.56881,-0.69414 0.85321,-1.61725 0.85321,-2.76932v-0.64353c0,-1.20995 -0.2844,-2.14509 -0.85321,-2.80542c-0.56881,-0.66033 -1.3714,-0.99053 -2.40776,-0.9906zM29.4121,18.6638v10.52781h-1.39552v-10.52781zM24.30722,18.6638h1.38828v7.12213c0,1.18579 -0.38081,2.07517 -1.14244,2.66816c-0.76163,0.58809 -1.65339,0.88213 -2.67529,0.88213c-1.07497,0 -1.97881,-0.29404 -2.71153,-0.88213c-0.72788,-0.59291 -1.09182,-1.4823 -1.09182,-2.66816v-7.12213h1.38105v7.12213c0,0.82429 0.22174,1.43407 0.66521,1.82933c0.4483,0.39045 1.03396,0.58568 1.75699,0.58568c0.7327,0 1.32079,-0.19523 1.76427,-0.58568c0.44348,-0.39528 0.66521,-1.00505 0.66521,-1.82933zM14.67602,18.6638h1.38828v7.12213c0,1.18579 -0.38081,2.07517 -1.14244,2.66816c-0.76163,0.58809 -1.65339,0.88213 -2.67529,0.88213c-1.07497,0 -1.97881,-0.29404 -2.71153,-0.88213c-0.72788,-0.59291 -1.09182,-1.4823 -1.09182,-2.66816v-7.12213h1.38105v7.12213c0,0.82429 0.22174,1.43407 0.66521,1.82933c0.4483,0.39045 1.03396,0.58568 1.75699,0.58568c0.7327,0 1.32079,-0.19523 1.76427,-0.58568c0.44348,-0.39528 0.66521,-1.00505 0.66521,-1.82933z" fill="none" stroke-width="0"></path><path d="M31.93564,29.19159v-10.52781h2.97906c1.38345,0 2.50179,0.44589 3.35503,1.33766c0.85803,0.88696 1.28705,2.09206 1.28705,3.61528v0.62906c0,1.52328 -0.43143,2.72837 -1.29429,3.61528c-0.85803,0.88696 -2.01733,1.33044 -3.47788,1.33044zM33.33116,19.80624v8.25017h1.45336c1.12319,0 1.96916,-0.34707 2.53789,-1.04121c0.56881,-0.69414 0.85321,-1.61725 0.85321,-2.76932v-0.64353c0,-1.20995 -0.2844,-2.14509 -0.85321,-2.80542c-0.56881,-0.66033 -1.3714,-0.99053 -2.40776,-0.9906zM29.4121,18.6638v10.52781h-1.39552v-10.52781zM24.30722,18.6638h1.38828v7.12213c0,1.18579 -0.38081,2.07517 -1.14244,2.66816c-0.76163,0.58809 -1.65339,0.88213 -2.67529,0.88213c-1.07497,0 -1.97881,-0.29404 -2.71153,-0.88213c-0.72788,-0.59291 -1.09182,-1.4823 -1.09182,-2.66816v-7.12213h1.38105v7.12213c0,0.82429 0.22174,1.43407 0.66521,1.82933c0.4483,0.39045 1.03396,0.58568 1.75699,0.58568c0.7327,0 1.32079,-0.19523 1.76427,-0.58568c0.44348,-0.39528 0.66521,-1.00505 0.66521,-1.82933zM14.67602,18.6638h1.38828v7.12213c0,1.18579 -0.38081,2.07517 -1.14244,2.66816c-0.76163,0.58809 -1.65339,0.88213 -2.67529,0.88213c-1.07497,0 -1.97881,-0.29404 -2.71153,-0.88213c-0.72788,-0.59291 -1.09182,-1.4823 -1.09182,-2.66816v-7.12213h1.38105v7.12213c0,0.82429 0.22174,1.43407 0.66521,1.82933c0.4483,0.39045 1.03396,0.58568 1.75699,0.58568c0.7327,0 1.32079,-0.19523 1.76427,-0.58568c0.44348,-0.39528 0.66521,-1.00505 0.66521,-1.82933z" fill="#ffffff" stroke-width="0"></path><path d="M2,24c0,-12.15026 9.84974,-22 22,-22c12.15026,0 22,9.84974 22,22c0,12.15026 -9.84974,22 -22,22c-12.15026,0 -22,-9.84974 -22,-22z" id="base 1 5 1" fill="none" stroke-width="1"></path><path d="M2,24c0,-12.15026 9.84974,-22 22,-22c12.15026,0 22,9.84974 22,22c0,12.15026 -9.84974,22 -22,22c-12.15026,0 -22,-9.84974 -22,-22z" id="base 1 1 1" fill="none" stroke-width="1"></path><g fill="#ffffff" stroke-width="1" font-family="Roboto, sans-serif" font-weight="400" font-size="14" text-anchor="start"><g><g></g></g></g><rect x="2" y="2" width="44" height="22" fill="none" stroke-width="1"></rect><path d="M2,24v-22h44v22z" fill="none" stroke-width="1"></path><path d="M2,24v-22h44v22z" fill="none" stroke-width="1"></path><path d="M2,24v-22h44v22z" fill="none" stroke-width="1"></path><path d="M2,24v-22h44v22z" fill="none" stroke-width="1"></path><g fill="#ffffff" stroke-width="1" font-family="Roboto, sans-serif" font-weight="400" font-size="14" text-anchor="start"><g><g></g></g></g><rect x="2" y="2" width="44" height="22" fill="none" stroke-width="1"></rect><path d="M2,24v-22h44v22z" fill="none" stroke-width="1"></path><path d="M2,24v-22h44v22z" fill="none" stroke-width="1"></path><path d="M2,24v-22h44v22z" fill="none" stroke-width="1"></path><path d="M2,24v-22h44v22z" fill="none" stroke-width="1"></path></g></svg>