<svg version="1.1" xmlns="http://www.w3.org/2000/svg" xmlns:xlink="http://www.w3.org/1999/xlink" width="48" height="48"><defs><linearGradient x1="8.44323" y1="14.68157" x2="73.3342" y2="67.09586" gradientUnits="userSpaceOnUse" id="color-1"><stop offset="0" stop-color="#000000" stop-opacity="0.3"></stop><stop offset="1" stop-color="#000000" stop-opacity="0"></stop></linearGradient><filter id="dropshadow-base"><feColorMatrix type="matrix" values="0 0 0 0 0  0 0 0 0 0  0 0 0 0 0  0 0 0 .8 0"></feColorMatrix> <feOffset dx="0" dy="1"></feOffset> <feGaussianBlur stdDeviation="1"></feGaussianBlur> <feComposite in="SourceGraphic"></feComposite></filter><filter id="dropshadow-banner" x="-10%" y="-10%" width="120%" height="130%"><feColorMatrix type="matrix" values="0 0 0 0 0  0 0 0 0 0  0 0 0 0 0  0 0 0 .4 0"></feColorMatrix> <feOffset dx="0" dy="1"></feOffset> <feGaussianBlur stdDeviation="0.5"></feGaussianBlur> <feComposite in="SourceGraphic"></feComposite></filter></defs><g fill="none" fill-rule="nonzero" stroke="none" stroke-width="none" stroke-linecap="butt" stroke-linejoin="miter" stroke-miterlimit="10" stroke-dasharray="" stroke-dashoffset="0" font-family="none" font-weight="none" font-size="none" text-anchor="none" style="mix-blend-mode: normal"><path d="M2,24c0,-12.15026 9.84974,-22 22,-22c12.15026,0 22,9.84974 22,22c0,12.15026 -9.84974,22 -22,22c-12.15026,0 -22,-9.84974 -22,-22z" id="base 1 5" fill="#eb6cd6" stroke-width="1"></path><path d="M8.44323,23.46841c4.65921,-8.78684 7.3797,-8.78684 8.28652,-8.78684c1.3736,0 2.53261,0.64955 3.59443,1.71137l13.17968,13.17968c1.00776,-1.07512 2.34955,-2.92697 4.05164,-6.10421l2.00127,1.06318l5.58249,5.58249c-2.08872,7.23451 -7.79067,12.93646 -15.02518,15.02518z" fill="url(#color-1)" stroke-width="1"></path><path transform="translate(-13.33628,-13.33628) scale(1.55568,1.55568)" d="M28.67337,29.98995c-2.05025,0 -3.35678,-2.25126 -4.86432,-4.84422c-0.1407,-0.26131 -0.28141,-0.52261 -0.44221,-0.78392c-0.1608,-0.26131 -0.30151,-0.52261 -0.44221,-0.76382c-1.28643,-2.21106 -2.39196,-4.1206 -3.59799,-4.1206c-0.34171,0 -1.62814,0.36181 -4.0402,4.86432l-1.28643,-0.68342c2.99497,-5.64824 4.74372,-5.64824 5.32663,-5.64824c2.05025,0 3.35678,2.25126 4.86432,4.84422c0.1407,0.26131 0.28141,0.52261 0.44221,0.78392c0.1608,0.26131 0.30151,0.52261 0.44221,0.76382c1.28643,2.21106 2.39196,4.1206 3.59799,4.1206c0.34171,0 1.62814,-0.36181 4.0402,-4.86432l1.28643,0.68342c-2.99497,5.64824 -4.74372,5.64824 -5.32663,5.64824z" fill="none" stroke-width="0"></path><path d="M31.27025,33.31843c-3.18953,0 -5.22208,-3.50223 -7.56732,-7.53605c-0.21889,-0.40651 -0.43778,-0.81302 -0.68794,-1.21953c-0.25016,-0.40651 -0.46905,-0.81302 -0.68794,-1.18826c-2.00127,-3.43969 -3.72112,-6.41033 -5.59731,-6.41033c-0.53159,0 -2.53286,0.56286 -6.28525,7.56732l-2.00127,-1.06318c4.65922,-8.78685 7.3797,-8.78685 8.28653,-8.78685c3.18953,0 5.22208,3.50223 7.56732,7.53605c0.21889,0.40651 0.43778,0.81302 0.68794,1.21953c0.25016,0.40651 0.46905,0.81302 0.68794,1.18826c2.00127,3.43969 3.72112,6.41033 5.59731,6.41033c0.53159,0 2.53286,-0.56286 6.28525,-7.56732l2.00127,1.06318c-4.65922,8.78685 -7.3797,8.78685 -8.28653,8.78685z" fill="#ffffff" stroke-width="0"></path><path d="M2,24c0,-12.15026 9.84974,-22 22,-22c12.15026,0 22,9.84974 22,22c0,12.15026 -9.84974,22 -22,22c-12.15026,0 -22,-9.84974 -22,-22z" id="base 1 1 1" fill="none" stroke-width="1"></path><g fill="#000000" stroke-width="1" font-family="Roboto, sans-serif" font-weight="400" font-size="14" text-anchor="start"></g><rect x="2" y="2" width="44" height="22" fill="none" stroke-width="1"></rect><path d="M2,24v-22h44v22z" fill="none" stroke-width="1"></path><path d="M2,24v-22h44v22z" fill="none" stroke-width="1"></path><path d="M2,24v-22h44v22z" fill="none" stroke-width="1"></path><path d="M2,24v-22h44v22z" fill="none" stroke-width="1"></path></g></svg>