<svg version="1.1" xmlns="http://www.w3.org/2000/svg" xmlns:xlink="http://www.w3.org/1999/xlink" width="48" height="48"><defs><linearGradient x1="15.03382" y1="12.23188" x2="54.17941" y2="56.98134" gradientUnits="userSpaceOnUse" id="color-1"><stop offset="0" stop-color="#000000" stop-opacity="0.3"></stop><stop offset="1" stop-color="#000000" stop-opacity="0"></stop></linearGradient><filter id="dropshadow-base"><feColorMatrix type="matrix" values="0 0 0 0 0  0 0 0 0 0  0 0 0 0 0  0 0 0 .8 0"></feColorMatrix> <feOffset dx="0" dy="1"></feOffset> <feGaussianBlur stdDeviation="1"></feGaussianBlur> <feComposite in="SourceGraphic"></feComposite></filter><filter id="dropshadow-banner" x="-10%" y="-10%" width="120%" height="130%"><feColorMatrix type="matrix" values="0 0 0 0 0  0 0 0 0 0  0 0 0 0 0  0 0 0 .4 0"></feColorMatrix> <feOffset dx="0" dy="1"></feOffset> <feGaussianBlur stdDeviation="0.5"></feGaussianBlur> <feComposite in="SourceGraphic"></feComposite></filter></defs><g fill="none" fill-rule="nonzero" stroke="none" stroke-width="none" stroke-linecap="butt" stroke-linejoin="miter" stroke-miterlimit="10" stroke-dasharray="" stroke-dashoffset="0" font-family="none" font-weight="none" font-size="none" text-anchor="none" style="mix-blend-mode: normal"><path d="M2,24c0,-12.15026 9.84974,-22 22,-22c12.15026,0 22,9.84974 22,22c0,12.15026 -9.84974,22 -22,22c-12.15026,0 -22,-9.84974 -22,-22z" id="base 1 9" fill="#00695c" stroke-width="1"></path><path d="M15.69018,35.11178c-0.40558,-0.40558 -0.65635,-0.96597 -0.65635,-1.58519v-11.20775c0,-1.23845 1.00309,-2.24155 2.24155,-2.24155h1.12077v-2.24155c0,-3.09334 2.51053,-5.60387 5.60387,-5.60387c1.54667,0 2.94763,0.62763 3.96193,1.64193l16.95699,16.95699c-2.63058,8.06125 -9.79108,14.07514 -18.47478,15.03496z" fill="url(#color-1)" stroke-width="1"></path><path d="M30.72465,20.07729h-1.12077v-2.24155c0,-3.09334 -2.51053,-5.60387 -5.60387,-5.60387c-3.09334,0 -5.60387,2.51053 -5.60387,5.60387v2.24155h-1.12077c-1.23846,0 -2.24155,1.00309 -2.24155,2.24155v11.20775c0,1.23846 1.00309,2.24155 2.24155,2.24155h13.44929c1.23846,0 2.24155,-1.00309 2.24155,-2.24155v-11.20775c0,-1.23846 -1.00309,-2.24155 -2.24155,-2.24155zM24,30.16426c-1.23846,0 -2.24155,-1.00309 -2.24155,-2.24155c0,-1.23846 1.00309,-2.24155 2.24155,-2.24155c1.23846,0 2.24155,1.00309 2.24155,2.24155c0,1.23846 -1.00309,2.24155 -2.24155,2.24155zM27.4744,20.07729h-6.9488v-2.24155c0,-1.91652 1.55788,-3.4744 3.4744,-3.4744c1.91652,0 3.4744,1.55788 3.4744,3.4744z" fill="none" stroke-width="0"></path><path d="M32.9662,22.31884v11.20775c0,1.23846 -1.00309,2.24155 -2.24155,2.24155h-13.44929c-1.23846,0 -2.24155,-1.00309 -2.24155,-2.24155v-11.20775c0,-1.23846 1.00309,-2.24155 2.24155,-2.24155h1.12077v-2.24155c0,-3.09334 2.51053,-5.60387 5.60387,-5.60387c3.09334,0 5.60387,2.51053 5.60387,5.60387v2.24155h1.12077c1.23846,0 2.24155,1.00309 2.24155,2.24155zM26.24155,27.92271c0,-1.23846 -1.00309,-2.24155 -2.24155,-2.24155c-1.23846,0 -2.24155,1.00309 -2.24155,2.24155c0,1.23846 1.00309,2.24155 2.24155,2.24155c1.23846,0 2.24155,-1.00309 2.24155,-2.24155zM27.4744,17.83574c0,-1.91652 -1.55788,-3.4744 -3.4744,-3.4744c-1.91652,0 -3.4744,1.55788 -3.4744,3.4744v2.24155h6.9488z" fill="#ffffff" stroke-width="0"></path><path d="M2,24c0,-12.15026 9.84974,-22 22,-22c12.15026,0 22,9.84974 22,22c0,12.15026 -9.84974,22 -22,22c-12.15026,0 -22,-9.84974 -22,-22z" id="base 1 5 1" fill="none" stroke-width="1"></path><path d="M2,24c0,-12.15026 9.84974,-22 22,-22c12.15026,0 22,9.84974 22,22c0,12.15026 -9.84974,22 -22,22c-12.15026,0 -22,-9.84974 -22,-22z" id="base 1 1 1" fill="none" stroke-width="1"></path><g fill="#000000" stroke-width="1" font-family="Roboto, sans-serif" font-weight="400" font-size="14" text-anchor="start"></g><rect x="2" y="2" width="44" height="22" fill="none" stroke-width="1"></rect><path d="M2,24v-22h44v22z" fill="none" stroke-width="1"></path><path d="M2,24v-22h44v22z" fill="none" stroke-width="1"></path><path d="M2,24v-22h44v22z" fill="none" stroke-width="1"></path><path d="M2,24v-22h44v22z" fill="none" stroke-width="1"></path><g fill="#000000" stroke-width="1" font-family="Roboto, sans-serif" font-weight="400" font-size="14" text-anchor="start"></g><rect x="2" y="2" width="44" height="22" fill="none" stroke-width="1"></rect><path d="M2,24v-22h44v22z" fill="none" stroke-width="1"></path><path d="M2,24v-22h44v22z" fill="none" stroke-width="1"></path><path d="M2,24v-22h44v22z" fill="none" stroke-width="1"></path><path d="M2,24v-22h44v22z" fill="none" stroke-width="1"></path></g></svg>