<svg version="1.1" xmlns="http://www.w3.org/2000/svg" xmlns:xlink="http://www.w3.org/1999/xlink" width="48" height="48"><defs><linearGradient x1="11.08449" y1="11.08449" x2="54.52708" y2="54.52708" gradientUnits="userSpaceOnUse" id="color-1"><stop offset="0" stop-color="#000000" stop-opacity="0.3"></stop><stop offset="1" stop-color="#000000" stop-opacity="0"></stop></linearGradient><filter id="dropshadow-base"><feColorMatrix type="matrix" values="0 0 0 0 0  0 0 0 0 0  0 0 0 0 0  0 0 0 .8 0"></feColorMatrix> <feOffset dx="0" dy="1"></feOffset> <feGaussianBlur stdDeviation="1"></feGaussianBlur> <feComposite in="SourceGraphic"></feComposite></filter><filter id="dropshadow-banner" x="-10%" y="-10%" width="120%" height="130%"><feColorMatrix type="matrix" values="0 0 0 0 0  0 0 0 0 0  0 0 0 0 0  0 0 0 .4 0"></feColorMatrix> <feOffset dx="0" dy="1"></feOffset> <feGaussianBlur stdDeviation="0.5"></feGaussianBlur> <feComposite in="SourceGraphic"></feComposite></filter></defs><g fill="none" fill-rule="nonzero" stroke="none" stroke-width="none" stroke-linecap="butt" stroke-linejoin="miter" stroke-miterlimit="10" stroke-dasharray="" stroke-dashoffset="0" font-family="none" font-weight="none" font-size="none" text-anchor="none" style="mix-blend-mode: normal"><path d="M2,24c0,-12.15026 9.84974,-22 22,-22c12.15026,0 22,9.84974 22,22c0,12.15026 -9.84974,22 -22,22c-12.15026,0 -22,-9.84974 -22,-22z" id="base 1 13" fill="#2e7d32" stroke-width="1"></path><path d="M33.13363,14.86948l12.59512,12.59512c-1.48341,9.37744 -8.89151,16.78397 -18.26973,18.26503l-12.59277,-12.59277c-2.33715,-2.33715 -3.78177,-5.56734 -3.78177,-9.13686c0,-7.13582 5.77323,-12.91551 12.90905,-12.91551c3.56952,0 6.80133,1.44623 9.14009,3.785z" fill="url(#color-1)" stroke-width="1"></path><path d="M23.99354,11.08449c-7.13582,0 -12.90905,5.77969 -12.90905,12.91551c0,7.13582 5.77323,12.91551 12.90905,12.91551c7.13582,0 12.92197,-5.77969 12.92197,-12.91551c0,-7.13582 -5.78615,-12.91551 -12.92197,-12.91551zM24,34.33241c-5.70866,0 -10.33241,-4.62375 -10.33241,-10.33241c0,-5.70866 4.62375,-10.33241 10.33241,-10.33241c5.70866,0 10.33241,4.62375 10.33241,10.33241c0,5.70866 -4.62375,10.33241 -10.33241,10.33241zM24.64578,17.54224h-1.93733v7.74931l6.77419,4.06839l0.97512,-1.58861l-5.81198,-3.44844z" fill="none" stroke-width="0"></path><path d="M36.91551,24c0,7.13582 -5.78615,12.91551 -12.92197,12.91551c-7.13582,0 -12.90905,-5.77969 -12.90905,-12.91551c0,-7.13582 5.77323,-12.91551 12.90905,-12.91551c7.13582,0 12.92197,5.77969 12.92197,12.91551zM34.33241,24c0,-5.70866 -4.62375,-10.33241 -10.33241,-10.33241c-5.70866,0 -10.33241,4.62375 -10.33241,10.33241c0,5.70866 4.62375,10.33241 10.33241,10.33241c5.70866,0 10.33241,-4.62375 10.33241,-10.33241zM24.64578,24.32289l5.81198,3.44844l-0.97512,1.58861l-6.77419,-4.06839v-7.74931h1.93733z" fill="#ffffff" stroke-width="0"></path><path d="M2,24c0,-12.15026 9.84974,-22 22,-22c12.15026,0 22,9.84974 22,22c0,12.15026 -9.84974,22 -22,22c-12.15026,0 -22,-9.84974 -22,-22z" id="base 1 9 1" fill="none" stroke-width="1"></path><path d="M2,24c0,-12.15026 9.84974,-22 22,-22c12.15026,0 22,9.84974 22,22c0,12.15026 -9.84974,22 -22,22c-12.15026,0 -22,-9.84974 -22,-22z" id="base 1 5 1" fill="none" stroke-width="1"></path><path d="M2,24c0,-12.15026 9.84974,-22 22,-22c12.15026,0 22,9.84974 22,22c0,12.15026 -9.84974,22 -22,22c-12.15026,0 -22,-9.84974 -22,-22z" id="base 1 1 1" fill="none" stroke-width="1"></path><g fill="#000000" stroke-width="1" font-family="Roboto, sans-serif" font-weight="400" font-size="14" text-anchor="start"><g><g></g></g></g><rect x="2" y="2" width="44" height="22" fill="none" stroke-width="1"></rect><path d="M2,24v-22h44v22z" fill="none" stroke-width="1"></path><path d="M2,24v-22h44v22z" fill="none" stroke-width="1"></path><path d="M2,24v-22h44v22z" fill="none" stroke-width="1"></path><path d="M2,24v-22h44v22z" fill="none" stroke-width="1"></path><g fill="#000000" stroke-width="1" font-family="Roboto, sans-serif" font-weight="400" font-size="14" text-anchor="start"><g><g></g></g></g><rect x="2" y="2" width="44" height="22" fill="none" stroke-width="1"></rect><path d="M2,24v-22h44v22z" fill="none" stroke-width="1"></path><path d="M2,24v-22h44v22z" fill="none" stroke-width="1"></path><path d="M2,24v-22h44v22z" fill="none" stroke-width="1"></path><path d="M2,24v-22h44v22z" fill="none" stroke-width="1"></path><g fill="#000000" stroke-width="1" font-family="Roboto, sans-serif" font-weight="400" font-size="14" text-anchor="start"></g><rect x="2" y="2" width="44" height="22" fill="none" stroke-width="1"></rect><path d="M2,24v-22h44v22z" fill="none" stroke-width="1"></path><path d="M2,24v-22h44v22z" fill="none" stroke-width="1"></path><path d="M2,24v-22h44v22z" fill="none" stroke-width="1"></path><path d="M2,24v-22h44v22z" fill="none" stroke-width="1"></path></g></svg>