<svg version="1.1" xmlns="http://www.w3.org/2000/svg" xmlns:xlink="http://www.w3.org/1999/xlink" width="48" height="48"><defs><linearGradient x1="8.44322" y1="16.87526" x2="66.32481" y2="57.8928" gradientUnits="userSpaceOnUse" id="color-1"><stop offset="0" stop-color="#000000" stop-opacity="0.3"></stop><stop offset="1" stop-color="#000000" stop-opacity="0"></stop></linearGradient><filter id="dropshadow-base"><feColorMatrix type="matrix" values="0 0 0 0 0  0 0 0 0 0  0 0 0 0 0  0 0 0 .8 0"></feColorMatrix> <feOffset dx="0" dy="1"></feOffset> <feGaussianBlur stdDeviation="1"></feGaussianBlur> <feComposite in="SourceGraphic"></feComposite></filter><filter id="dropshadow-banner" x="-10%" y="-10%" width="120%" height="130%"><feColorMatrix type="matrix" values="0 0 0 0 0  0 0 0 0 0  0 0 0 0 0  0 0 0 .4 0"></feColorMatrix> <feOffset dx="0" dy="1"></feOffset> <feGaussianBlur stdDeviation="0.5"></feGaussianBlur> <feComposite in="SourceGraphic"></feComposite></filter></defs><g fill="none" fill-rule="nonzero" stroke="none" stroke-width="none" stroke-linecap="butt" stroke-linejoin="miter" stroke-miterlimit="10" stroke-dasharray="" stroke-dashoffset="0" font-family="none" font-weight="none" font-size="none" text-anchor="none" style="mix-blend-mode: normal"><path d="M2,24c0,-12.15026 9.84974,-22 22,-22c12.15026,0 22,9.84974 22,22c0,12.15026 -9.84974,22 -22,22c-12.15026,0 -22,-9.84974 -22,-22z" id="base 1 9" fill="#01579b" stroke-width="1"></path><path d="M33.34449,20.60705h6.21229l6.25832,6.25832c-1.30067,10.00005 -9.31657,17.89112 -19.37535,19.00088l-17.99653,-17.99653v-10.84549h1.43763l5.48235,5.48235v-5.48235l1.42268,0l2.78586,2.78586h0.96082l2.01526,2.01526c0.00584,-0.19688 0.01793,-0.38838 0.03628,-0.57451l-2.80441,-2.80441c-0.24474,-0.00686 -0.43327,-0.08117 -0.56559,-0.22293c-0.13905,-0.15395 -0.20855,-0.33768 -0.20855,-0.55121c0,-0.22346 0.06952,-0.41216 0.20855,-0.56611c0.00745,-0.00825 0.01508,-0.01628 0.02289,-0.02409c0.13789,-0.13789 0.33138,-0.20684 0.58046,-0.20684c0.25403,0 0.45014,0.06908 0.58831,0.20725l2.54663,2.54663c0.19716,-0.51244 0.46566,-0.96361 0.8055,-1.3535c0.80943,-0.93359 1.85722,-1.40037 3.14333,-1.40037c1.19346,0 2.17083,0.38065 2.93212,1.14194l3.51114,3.51114z" fill="url(#color-1)" stroke-width="1"></path><path d="M39.55678,20.60706v1.19926h-6.21229v-1.19926zM39.55678,23.69835v1.19926h-6.21229v-1.19926zM31.30357,28.80823l-0.96834,0.89386l-2.28683,-1.8175c-0.35754,0.08939 -0.73495,0.13408 -1.13222,0.13408c-1.28614,0 -2.33642,-0.46431 -3.15083,-1.39293c-0.8144,-0.92862 -1.2216,-2.20731 -1.2216,-3.83608v-0.6853c0,-1.62382 0.40472,-2.90007 1.21416,-3.82873c0.80944,-0.93359 1.85722,-1.40038 3.14333,-1.40038c1.31103,0 2.36131,0.45934 3.15083,1.37802c0.79454,0.91372 1.19926,2.16763 1.21416,3.76171v0.77468c0,1.04283 -0.16636,1.94661 -0.49907,2.71133c-0.33271,0.75978 -0.79702,1.35322 -1.39293,1.78031zM29.84355,22.08942c0,-1.29114 -0.25823,-2.27934 -0.77468,-2.96459c-0.51646,-0.68526 -1.239,-1.0279 -2.16763,-1.02794c-0.88889,0 -1.60149,0.34265 -2.13779,1.02794c-0.53135,0.6853 -0.79703,1.67349 -0.79703,2.96459v0.70019c0,1.30104 0.26815,2.29668 0.80446,2.98694c0.54128,0.6853 1.25637,1.02794 2.14528,1.02794c0.93359,0 1.65363,-0.34265 2.16013,-1.02794c0.51149,-0.69025 0.76723,-1.6859 0.76723,-2.98694zM19.00556,17.6723c0,-0.22346 0.06952,-0.41216 0.20856,-0.56611c0.13904,-0.15394 0.34016,-0.23092 0.60335,-0.23092c0.26815,0 0.47176,0.07697 0.61081,0.23092c0.13905,0.15394 0.20857,0.34265 0.20856,0.56611c0,0.21353 -0.06952,0.39727 -0.20856,0.5512c-0.13904,0.14898 -0.34264,0.22347 -0.61081,0.22347c-0.26319,0 -0.4643,-0.07449 -0.60335,-0.22347c-0.13904,-0.15394 -0.20856,-0.33768 -0.20856,-0.5512zM19.14709,19.81009h1.38548v9.02048c0,1.52946 -0.70265,2.29418 -2.10795,2.29418c-0.30788,0 -0.59342,-0.04221 -0.85661,-0.12663l0.0075,-1.10987c0.18373,0.04469 0.39478,0.06704 0.63315,0.06704c0.60583,0 0.91868,-0.34513 0.93855,-1.03538zM16.78588,17.02423v10.84548h-1.44504l-5.46,-8.36506v8.36506h-1.43763v-10.84548h1.43763l5.48234,8.38741v-8.38741z" fill="none" stroke-width="0"></path><path d="M39.55678,20.60706v1.19926h-6.21229v-1.19926zM39.55678,23.69835v1.19926h-6.21229v-1.19926zM31.30357,28.80823l-0.96834,0.89386l-2.28683,-1.8175c-0.35754,0.08939 -0.73495,0.13408 -1.13222,0.13408c-1.28614,0 -2.33642,-0.46431 -3.15083,-1.39293c-0.8144,-0.92862 -1.2216,-2.20731 -1.2216,-3.83608v-0.6853c0,-1.62382 0.40472,-2.90007 1.21416,-3.82873c0.80944,-0.93359 1.85722,-1.40038 3.14333,-1.40038c1.31103,0 2.36131,0.45934 3.15083,1.37802c0.79454,0.91372 1.19926,2.16763 1.21416,3.76171v0.77468c0,1.04283 -0.16636,1.94661 -0.49907,2.71133c-0.33271,0.75978 -0.79702,1.35322 -1.39293,1.78031zM29.84355,22.08942c0,-1.29114 -0.25823,-2.27934 -0.77468,-2.96459c-0.51646,-0.68526 -1.239,-1.0279 -2.16763,-1.02794c-0.88889,0 -1.60149,0.34265 -2.13779,1.02794c-0.53135,0.6853 -0.79703,1.67349 -0.79703,2.96459v0.70019c0,1.30104 0.26815,2.29668 0.80446,2.98694c0.54128,0.6853 1.25637,1.02794 2.14528,1.02794c0.93359,0 1.65363,-0.34265 2.16013,-1.02794c0.51149,-0.69025 0.76723,-1.6859 0.76723,-2.98694zM19.00556,17.6723c0,-0.22346 0.06952,-0.41216 0.20856,-0.56611c0.13904,-0.15394 0.34016,-0.23092 0.60335,-0.23092c0.26815,0 0.47176,0.07697 0.61081,0.23092c0.13905,0.15394 0.20857,0.34265 0.20856,0.56611c0,0.21353 -0.06952,0.39727 -0.20856,0.5512c-0.13904,0.14898 -0.34264,0.22347 -0.61081,0.22347c-0.26319,0 -0.4643,-0.07449 -0.60335,-0.22347c-0.13904,-0.15394 -0.20856,-0.33768 -0.20856,-0.5512zM19.14709,19.81009h1.38548v9.02048c0,1.52946 -0.70265,2.29418 -2.10795,2.29418c-0.30788,0 -0.59342,-0.04221 -0.85661,-0.12663l0.0075,-1.10987c0.18373,0.04469 0.39478,0.06704 0.63315,0.06704c0.60583,0 0.91868,-0.34513 0.93855,-1.03538zM16.78588,17.02423v10.84548h-1.44504l-5.46,-8.36506v8.36506h-1.43763v-10.84548h1.43763l5.48234,8.38741v-8.38741z" fill="#ffffff" stroke-width="0"></path><path d="M2,24c0,-12.15026 9.84974,-22 22,-22c12.15026,0 22,9.84974 22,22c0,12.15026 -9.84974,22 -22,22c-12.15026,0 -22,-9.84974 -22,-22z" id="base 1 5 1" fill="none" stroke-width="1"></path><path d="M2,24c0,-12.15026 9.84974,-22 22,-22c12.15026,0 22,9.84974 22,22c0,12.15026 -9.84974,22 -22,22c-12.15026,0 -22,-9.84974 -22,-22z" id="base 1 1 1" fill="none" stroke-width="1"></path><g fill="#000000" stroke-width="1" font-family="Roboto, sans-serif" font-weight="400" font-size="14" text-anchor="start"><g><g></g></g></g><rect x="2" y="2" width="44" height="22" fill="none" stroke-width="1"></rect><path d="M2,24v-22h44v22z" fill="none" stroke-width="1"></path><path d="M2,24v-22h44v22z" fill="none" stroke-width="1"></path><path d="M2,24v-22h44v22z" fill="none" stroke-width="1"></path><path d="M2,24v-22h44v22z" fill="none" stroke-width="1"></path><g fill="#000000" stroke-width="1" font-family="Roboto, sans-serif" font-weight="400" font-size="14" text-anchor="start"><g><g></g></g></g><rect x="2" y="2" width="44" height="22" fill="none" stroke-width="1"></rect><path d="M2,24v-22h44v22z" fill="none" stroke-width="1"></path><path d="M2,24v-22h44v22z" fill="none" stroke-width="1"></path><path d="M2,24v-22h44v22z" fill="none" stroke-width="1"></path><path d="M2,24v-22h44v22z" fill="none" stroke-width="1"></path></g></svg>