<svg version="1.1" xmlns="http://www.w3.org/2000/svg" xmlns:xlink="http://www.w3.org/1999/xlink" width="48" height="48"><defs><linearGradient x1="11.08449" y1="11.08449" x2="64.95812" y2="64.95812" gradientUnits="userSpaceOnUse" id="color-1"><stop offset="0" stop-color="#000000" stop-opacity="0.3"></stop><stop offset="1" stop-color="#000000" stop-opacity="0"></stop></linearGradient><filter id="dropshadow-base"><feColorMatrix type="matrix" values="0 0 0 0 0  0 0 0 0 0  0 0 0 0 0  0 0 0 .8 0"></feColorMatrix> <feOffset dx="0" dy="1"></feOffset> <feGaussianBlur stdDeviation="1"></feGaussianBlur> <feComposite in="SourceGraphic"></feComposite></filter><filter id="dropshadow-banner" x="-10%" y="-10%" width="120%" height="130%"><feColorMatrix type="matrix" values="0 0 0 0 0  0 0 0 0 0  0 0 0 0 0  0 0 0 .4 0"></feColorMatrix> <feOffset dx="0" dy="1"></feOffset> <feGaussianBlur stdDeviation="0.5"></feGaussianBlur> <feComposite in="SourceGraphic"></feComposite></filter></defs><g fill="none" fill-rule="nonzero" stroke="none" stroke-width="none" stroke-linecap="butt" stroke-linejoin="miter" stroke-miterlimit="10" stroke-dasharray="" stroke-dashoffset="0" font-family="none" font-weight="none" font-size="none" text-anchor="none" style="mix-blend-mode: normal"><path d="M2,24c0,-12.15026 9.84974,-22 22,-22c12.15026,0 22,9.84974 22,22c0,12.15026 -9.84974,22 -22,22c-12.15026,0 -22,-9.84974 -22,-22z" id="base 1 5" fill="#607d8b" stroke-width="1"></path><path d="M33.13363,14.86948l12.59512,12.59512c-1.48341,9.37744 -8.89151,16.78397 -18.26973,18.26503l-12.59277,-12.59277c-2.33715,-2.33715 -3.78177,-5.56734 -3.78177,-9.13686c0,-7.13582 5.77323,-12.91551 12.90905,-12.91551c3.56952,0 6.80133,1.44623 9.14009,3.785z" fill="url(#color-1)" stroke-width="1"></path><path d="M23.99354,11.08449c-7.13582,0 -12.90905,5.77969 -12.90905,12.91551c0,7.13582 5.77323,12.91551 12.90905,12.91551c7.13582,0 12.92197,-5.77969 12.92197,-12.91551c0,-7.13582 -5.78615,-12.91551 -12.92197,-12.91551zM32.93753,18.8338h-3.81008c-0.41975,-1.61444 -1.00741,-3.1643 -1.78234,-4.59792c2.37645,0.81368 4.35253,2.4604 5.59242,4.59792zM24,13.71279c1.07845,1.54986 1.91795,3.27408 2.46686,5.121h-4.93373c0.54891,-1.84692 1.38842,-3.57114 2.46686,-5.121zM14.00339,26.5831c-0.21311,-0.82659 -0.3358,-1.69193 -0.3358,-2.5831c0,-0.89117 0.1227,-1.75651 0.3358,-2.5831h4.35899c-0.10332,0.84597 -0.17436,1.70485 -0.17436,2.5831c0,0.87825 0.07104,1.73714 0.18082,2.5831zM15.05601,29.1662h3.81008c0.41975,1.61444 1.00741,3.1643 1.78234,4.60438c-2.37645,-0.81368 -4.35253,-2.46686 -5.59242,-4.60438zM18.86608,18.8338h-3.81008c1.23989,-2.13752 3.21596,-3.7907 5.59242,-4.60438c-0.77493,1.44008 -1.36259,2.98994 -1.78234,4.60438zM24,34.28721c-1.07199,-1.54986 -1.9115,-3.27408 -2.46686,-5.121h4.93373c-0.55537,1.84692 -1.39488,3.57114 -2.46686,5.121zM27.02223,26.5831h-6.04446c-0.1227,-0.84597 -0.20665,-1.70485 -0.20665,-2.5831c0,-0.87825 0.08395,-1.73714 0.20665,-2.5831h6.04446c0.1227,0.84597 0.20665,1.70485 0.20665,2.5831c0,0.87825 -0.08395,1.73714 -0.20665,2.5831zM27.35158,33.76413c0.77493,-1.44008 1.36259,-2.98348 1.78234,-4.59792h3.81008c-1.24635,2.13752 -3.22242,3.78424 -5.59242,4.59792zM29.63116,26.5831c0.10332,-0.84597 0.18082,-1.70485 0.18082,-2.5831c0,-0.87825 -0.07104,-1.73714 -0.18082,-2.5831h4.35899c0.21311,0.82659 0.34226,1.69193 0.34226,2.5831c0,0.89117 -0.1227,1.75651 -0.34226,2.5831z" fill="none" stroke-width="0"></path><path d="M36.91551,24c0,7.13582 -5.78615,12.91551 -12.92197,12.91551c-7.13582,0 -12.90905,-5.77969 -12.90905,-12.91551c0,-7.13582 5.77323,-12.91551 12.90905,-12.91551c7.13582,0 12.92197,5.77969 12.92197,12.91551zM27.34512,14.23587c0.77493,1.43362 1.36259,2.98348 1.78234,4.59792h3.81008c-1.23989,-2.13752 -3.21596,-3.78424 -5.59242,-4.59792zM21.53314,18.8338h4.93373c-0.54891,-1.84692 -1.38842,-3.57114 -2.46686,-5.121c-1.07845,1.54986 -1.91795,3.27408 -2.46686,5.121zM18.36884,26.5831c-0.10978,-0.84597 -0.18082,-1.70485 -0.18082,-2.5831c0,-0.87825 0.07104,-1.73714 0.17436,-2.5831h-4.35899c-0.21311,0.82659 -0.3358,1.69193 -0.3358,2.5831c0,0.89117 0.1227,1.75651 0.3358,2.5831zM20.64842,33.77058c-0.77493,-1.44008 -1.36259,-2.98994 -1.78234,-4.60438h-3.81008c1.23989,2.13752 3.21596,3.7907 5.59242,4.60438zM20.64842,14.22942c-2.37645,0.81368 -4.35253,2.46686 -5.59242,4.60438h3.81008c0.41975,-1.61444 1.00741,-3.1643 1.78234,-4.60438zM26.46686,29.1662h-4.93373c0.55537,1.84692 1.39488,3.57114 2.46686,5.121c1.07199,-1.54986 1.9115,-3.27408 2.46686,-5.121zM27.22888,24c0,-0.87825 -0.08395,-1.73714 -0.20665,-2.5831h-6.04446c-0.1227,0.84597 -0.20665,1.70485 -0.20665,2.5831c0,0.87825 0.08395,1.73714 0.20665,2.5831h6.04446c0.1227,-0.84597 0.20665,-1.70485 0.20665,-2.5831zM32.94399,29.1662h-3.81008c-0.41975,1.61444 -1.00741,3.15784 -1.78234,4.59792c2.37,-0.81368 4.34607,-2.4604 5.59242,-4.59792zM33.99015,26.5831c0.21956,-0.82659 0.34226,-1.69193 0.34226,-2.5831c0,-0.89117 -0.12916,-1.75651 -0.34226,-2.5831h-4.35899c0.10978,0.84597 0.18082,1.70485 0.18082,2.5831c0,0.87825 -0.07749,1.73714 -0.18082,2.5831z" fill="#ffffff" stroke-width="0"></path><path d="M2,24c0,-12.15026 9.84974,-22 22,-22c12.15026,0 22,9.84974 22,22c0,12.15026 -9.84974,22 -22,22c-12.15026,0 -22,-9.84974 -22,-22z" id="base 1 1 1" fill="none" stroke-width="1"></path><g fill="#000000" stroke-width="1" font-family="Roboto, sans-serif" font-weight="400" font-size="14" text-anchor="start"></g><rect x="2" y="2" width="44" height="22" fill="none" stroke-width="1"></rect><path d="M2,24v-22h44v22z" fill="none" stroke-width="1"></path><path d="M2,24v-22h44v22z" fill="none" stroke-width="1"></path><path d="M2,24v-22h44v22z" fill="none" stroke-width="1"></path><path d="M2,24v-22h44v22z" fill="none" stroke-width="1"></path></g></svg>