<svg version="1.1" xmlns="http://www.w3.org/2000/svg" xmlns:xlink="http://www.w3.org/1999/xlink" width="48" height="48"><defs><linearGradient x1="7.70245" y1="20.36128" x2="69.6754" y2="57.01663" gradientUnits="userSpaceOnUse" id="color-1"><stop offset="0" stop-color="#000000" stop-opacity="0.3"></stop><stop offset="1" stop-color="#000000" stop-opacity="0"></stop></linearGradient><filter id="dropshadow-base"><feColorMatrix type="matrix" values="0 0 0 0 0  0 0 0 0 0  0 0 0 0 0  0 0 0 .8 0"></feColorMatrix> <feOffset dx="0" dy="1"></feOffset> <feGaussianBlur stdDeviation="1"></feGaussianBlur> <feComposite in="SourceGraphic"></feComposite></filter><filter id="dropshadow-banner" x="-10%" y="-10%" width="120%" height="130%"><feColorMatrix type="matrix" values="0 0 0 0 0  0 0 0 0 0  0 0 0 0 0  0 0 0 .4 0"></feColorMatrix> <feOffset dx="0" dy="1"></feOffset> <feGaussianBlur stdDeviation="0.5"></feGaussianBlur> <feComposite in="SourceGraphic"></feComposite></filter></defs><g fill="none" fill-rule="nonzero" stroke="none" stroke-width="none" stroke-linecap="butt" stroke-linejoin="miter" stroke-miterlimit="10" stroke-dasharray="" stroke-dashoffset="0" font-family="none" font-weight="none" font-size="none" text-anchor="none" style="mix-blend-mode: normal"><path d="M2,24c0,-12.15026 9.84974,-22 22,-22c12.15026,0 22,9.84974 22,22c0,12.15026 -9.84974,22 -22,22c-12.15026,0 -22,-9.84974 -22,-22z" id="base 1 13" fill="#0277bd" stroke-width="1"></path><path d="M39.29803,20.37124l6.51441,6.51441c-1.32503,10.11378 -9.51959,18.06588 -19.74596,19.01857l-18.36404,-18.36404v-7.16894h2.34865c0.73531,0 1.30809,0.15264 1.71838,0.45791c0.05933,0.04332 0.11441,0.09039 0.16523,0.14121c0,0 0,0 0,0l2.06907,2.06907c0.09287,-0.14484 0.21796,-0.28582 0.37526,-0.42295c0.38405,-0.33478 0.89777,-0.50219 1.54114,-0.50222c0.57771,0 1.05202,0.1477 1.4229,0.44313c0.04161,0.03314 0.08089,0.06819 0.11784,0.10513l4.20016,4.20016c0.088,-0.01471 0.16893,-0.03528 0.2428,-0.06172l-2.27768,-2.27768c-0.21891,-0.21891 -0.32835,-0.50327 -0.32835,-0.8531c0,-0.42015 0.1789,-0.7845 0.53668,-1.09304c0.36107,-0.30856 0.84033,-0.46283 1.43777,-0.46283c0.63679,0 1.13408,0.16249 1.49189,0.48744c0.02385,0.02166 0.04691,0.04362 0.06917,0.06588c0,0 0,0 0,0l1.52607,1.52607c0.05299,-0.30381 0.14493,-0.57682 0.2758,-0.81903c0.22321,-0.41031 0.51207,-0.72214 0.86657,-0.93551c0.3545,-0.21664 0.732,-0.32496 1.1325,-0.32496c0.76153,0 1.31629,0.24947 1.66425,0.7484l1.54121,1.54121c0.00488,-0.6537 0.09836,-1.28564 0.28046,-1.89578c0.19039,-0.62695 0.53339,-1.14066 1.02903,-1.54114c0.49566,-0.40374 1.20466,-0.60562 2.12702,-0.60562h0.07878l3.02485,3.02485l1.94818,-3.01489z" fill="url(#color-1)" stroke-width="1"></path><path d="M35.11783,25.33924l3.21026,-4.96798h0.96995v4.75627h0.99949v0.7484h-0.99949v1.66425h-0.91088v-1.66425h-3.26934zM36.15181,25.12753h2.23536v-3.52049l-0.11325,0.20187zM34.36941,25.20137c0,0.67947 -0.19038,1.25553 -0.57115,1.72819c-0.37749,0.47268 -0.92893,0.70902 -1.65434,0.70902c-0.51535,0 -0.94373,-0.13622 -1.28513,-0.40866c-0.34138,-0.27573 -0.59741,-0.62366 -0.7681,-1.04379c-0.16741,-0.42344 -0.25111,-0.85674 -0.25111,-1.2999v-0.42836c0,-0.67293 0.09355,-1.32286 0.28066,-1.94981c0.19038,-0.62695 0.53339,-1.14067 1.02902,-1.54115c0.49566,-0.40375 1.20467,-0.60562 2.12703,-0.60562h0.07878v0.77302c-0.63679,0 -1.13243,0.1116 -1.48694,0.33481c-0.35123,0.22321 -0.61382,0.51371 -0.78779,0.8715c-0.17069,0.35451 -0.27409,0.73528 -0.31019,1.14231c0.38077,-0.43 0.89449,-0.64501 1.54115,-0.64501c0.47596,0 0.86492,0.11489 1.16689,0.34467c0.30527,0.22977 0.53012,0.52683 0.67455,0.89119c0.14443,0.36107 0.21665,0.73692 0.21665,1.12754zM30.75545,24.9158c0,0.63679 0.14115,1.12424 0.42344,1.46235c0.28557,0.33809 0.60727,0.50714 0.96509,0.50714c0.42016,0 0.74513,-0.15264 0.9749,-0.45791c0.23305,-0.30855 0.34958,-0.70243 0.34958,-1.18166c0,-0.42672 -0.10668,-0.80914 -0.32004,-1.14726c-0.21336,-0.3381 -0.5416,-0.50715 -0.98472,-0.50715c-0.3184,0 -0.60726,0.09519 -0.86657,0.28557c-0.25931,0.19039 -0.43985,0.4218 -0.54161,0.69425zM28.75638,26.60959c-0.17397,0.2626 -0.42016,0.50057 -0.73856,0.71393c-0.3184,0.21008 -0.7402,0.31512 -1.26541,0.31512c-0.74185,0 -1.33598,-0.24126 -1.7824,-0.72378c-0.44313,-0.48252 -0.6647,-1.09962 -0.6647,-1.85129v-0.2068c0,-0.581 0.10996,-1.07503 0.32989,-1.48208c0.22321,-0.41031 0.51207,-0.72214 0.86657,-0.9355c0.35451,-0.21664 0.73201,-0.32496 1.1325,-0.32496c0.76154,0 1.31629,0.24947 1.66425,0.7484c0.35123,0.49565 0.52684,1.11605 0.52684,1.8612v0.40866h-3.60415c0.01313,0.48909 0.15756,0.90597 0.43328,1.25064c0.27901,0.34138 0.66143,0.51207 1.14726,0.51207c0.32168,0 0.59413,-0.06565 0.81734,-0.19695c0.22321,-0.1313 0.41852,-0.30691 0.58592,-0.52683zM26.63422,22.86261c-0.36107,0 -0.66634,0.1313 -0.91581,0.3939c-0.24947,0.2626 -0.40539,0.6401 -0.46776,1.1325h2.66374v-0.06898c-0.02298,-0.3545 -0.12637,-0.68605 -0.31019,-0.99463c-0.18054,-0.30855 -0.50385,-0.46283 -0.96995,-0.46283zM22.4441,26.12709c0,-0.19367 -0.07222,-0.36764 -0.21665,-0.52191c-0.14115,-0.15756 -0.46939,-0.28886 -0.98472,-0.3939c-0.59413,-0.12146 -1.06681,-0.29707 -1.41805,-0.52684c-0.35123,-0.23305 -0.52684,-0.57114 -0.52684,-1.01425c0,-0.42015 0.17889,-0.7845 0.53668,-1.09305c0.36107,-0.30855 0.84033,-0.46283 1.43777,-0.46283c0.63679,0 1.13408,0.16248 1.49189,0.48744c0.35779,0.32497 0.53668,0.71723 0.53668,1.1768h-0.91088c0,-0.21992 -0.09683,-0.42672 -0.2905,-0.62039c-0.19367,-0.19695 -0.46939,-0.29542 -0.82718,-0.29542c-0.37749,0 -0.64829,0.08206 -0.81241,0.24618c-0.16412,0.16412 -0.24618,0.34302 -0.24618,0.53669c0,0.19367 0.0755,0.35122 0.22649,0.47267c0.15428,0.11817 0.47924,0.23305 0.9749,0.34466c0.65324,0.14772 1.13904,0.34138 1.4574,0.58101c0.32168,0.23962 0.48253,0.5777 0.48253,1.01425c0,0.46939 -0.18874,0.85016 -0.56623,1.14231c-0.3742,0.29214 -0.8715,0.43821 -1.49189,0.43821c-0.70571,0 -1.24569,-0.18054 -1.61995,-0.54161c-0.3742,-0.36107 -0.5613,-0.76153 -0.5613,-1.20138h0.91581c0.0197,0.37749 0.16413,0.63844 0.43328,0.78287c0.27245,0.14115 0.54982,0.21172 0.83211,0.21172c0.37092,0 0.65485,-0.07221 0.8518,-0.21664c0.19695,-0.14443 0.29542,-0.32661 0.29542,-0.54653zM17.13634,27.54018c-0.05909,-0.12802 -0.10176,-0.31512 -0.12802,-0.5613c-0.17069,0.18054 -0.38405,0.33646 -0.64008,0.46776c-0.25604,0.12801 -0.54818,0.19202 -0.87642,0.19202c-0.54489,0 -0.98146,-0.15264 -1.30972,-0.45791c-0.32825,-0.30527 -0.49237,-0.67947 -0.49237,-1.12259c0,-0.57115 0.21664,-1.00445 0.64993,-1.2999c0.43329,-0.2987 1.01592,-0.44805 1.74791,-0.44805h0.90104v-0.42344c0,-0.31512 -0.09519,-0.56623 -0.28557,-0.75333c-0.1871,-0.19038 -0.46612,-0.28557 -0.83703,-0.28557c-0.34466,0 -0.62367,0.08534 -0.83703,0.25603c-0.21008,0.16741 -0.31512,0.36271 -0.31512,0.58592h-0.91088c0,-0.38076 0.19202,-0.73854 0.57607,-1.07333c0.38405,-0.33479 0.89776,-0.50219 1.54115,-0.50222c0.57771,0 1.05202,0.14771 1.42291,0.44314c0.37092,0.29542 0.55638,0.74184 0.55638,1.33925v2.39295c0,0.49237 0.06237,0.88299 0.1871,1.17185v0.0788zM15.62473,26.84102c0.32825,0 0.61218,-0.08206 0.8518,-0.24619c0.2429,-0.16412 0.41359,-0.3463 0.51207,-0.54652v-1.098h-0.84689c-1.02413,0.01969 -1.5362,0.34793 -1.5362,0.98472c0,0.25275 0.08535,0.46775 0.25604,0.64501c0.17069,0.17397 0.42508,0.26096 0.76317,0.26096zM12.58187,25.47223c0,0.66963 -0.21664,1.18169 -0.64993,1.5362c-0.43,0.3545 -1.00279,0.53176 -1.71837,0.53176h-2.5111v-7.16895h2.34865c0.73531,0 1.3081,0.15264 1.71837,0.45791c0.41359,0.30199 0.62039,0.78617 0.62039,1.45254c0,0.33153 -0.09519,0.62695 -0.28557,0.88626c-0.1871,0.25604 -0.44478,0.45463 -0.77302,0.59578c0.40375,0.1116 0.7123,0.32332 0.92566,0.63515c0.21664,0.31184 0.32496,0.66965 0.32496,1.07342zM8.65272,21.14919v2.27471h1.42786c0.40703,0 0.73527,-0.10176 0.98472,-0.30527c0.24947,-0.20352 0.3742,-0.48581 0.3742,-0.84689c0,-0.732 -0.44315,-1.1062 -1.32944,-1.12259zM11.63651,25.48204c0,-0.40047 -0.10996,-0.71559 -0.32989,-0.94536c-0.21664,-0.23305 -0.56622,-0.34958 -1.04874,-0.34958h-1.60518v2.57999h1.56078c0.4497,0 0.79928,-0.11489 1.04874,-0.34466c0.24947,-0.23306 0.3742,-0.54654 0.3742,-0.94043z" fill="none" stroke-width="0"></path><path d="M35.11783,25.33924l3.21026,-4.96798h0.96995v4.75627h0.99949v0.7484h-0.99949v1.66425h-0.91088v-1.66425h-3.26934zM36.15181,25.12753h2.23536v-3.52049l-0.11325,0.20187zM34.36941,25.20137c0,0.67947 -0.19038,1.25553 -0.57115,1.72819c-0.37749,0.47268 -0.92893,0.70902 -1.65434,0.70902c-0.51535,0 -0.94373,-0.13622 -1.28513,-0.40866c-0.34138,-0.27573 -0.59741,-0.62366 -0.7681,-1.04379c-0.16741,-0.42344 -0.25111,-0.85674 -0.25111,-1.2999v-0.42836c0,-0.67293 0.09355,-1.32286 0.28066,-1.94981c0.19038,-0.62695 0.53339,-1.14067 1.02902,-1.54115c0.49566,-0.40375 1.20467,-0.60562 2.12703,-0.60562h0.07878v0.77302c-0.63679,0 -1.13243,0.1116 -1.48694,0.33481c-0.35123,0.22321 -0.61382,0.51371 -0.78779,0.8715c-0.17069,0.35451 -0.27409,0.73528 -0.31019,1.14231c0.38077,-0.43 0.89449,-0.64501 1.54115,-0.64501c0.47596,0 0.86492,0.11489 1.16689,0.34467c0.30527,0.22977 0.53012,0.52683 0.67455,0.89119c0.14443,0.36107 0.21665,0.73692 0.21665,1.12754zM30.75545,24.9158c0,0.63679 0.14115,1.12424 0.42344,1.46235c0.28557,0.33809 0.60727,0.50714 0.96509,0.50714c0.42016,0 0.74513,-0.15264 0.9749,-0.45791c0.23305,-0.30855 0.34958,-0.70243 0.34958,-1.18166c0,-0.42672 -0.10668,-0.80914 -0.32004,-1.14726c-0.21336,-0.3381 -0.5416,-0.50715 -0.98472,-0.50715c-0.3184,0 -0.60726,0.09519 -0.86657,0.28557c-0.25931,0.19039 -0.43985,0.4218 -0.54161,0.69425zM28.75638,26.60959c-0.17397,0.2626 -0.42016,0.50057 -0.73856,0.71393c-0.3184,0.21008 -0.7402,0.31512 -1.26541,0.31512c-0.74185,0 -1.33598,-0.24126 -1.7824,-0.72378c-0.44313,-0.48252 -0.6647,-1.09962 -0.6647,-1.85129v-0.2068c0,-0.581 0.10996,-1.07503 0.32989,-1.48208c0.22321,-0.41031 0.51207,-0.72214 0.86657,-0.9355c0.35451,-0.21664 0.73201,-0.32496 1.1325,-0.32496c0.76154,0 1.31629,0.24947 1.66425,0.7484c0.35123,0.49565 0.52684,1.11605 0.52684,1.8612v0.40866h-3.60415c0.01313,0.48909 0.15756,0.90597 0.43328,1.25064c0.27901,0.34138 0.66143,0.51207 1.14726,0.51207c0.32168,0 0.59413,-0.06565 0.81734,-0.19695c0.22321,-0.1313 0.41852,-0.30691 0.58592,-0.52683zM26.63422,22.86261c-0.36107,0 -0.66634,0.1313 -0.91581,0.3939c-0.24947,0.2626 -0.40539,0.6401 -0.46776,1.1325h2.66374v-0.06898c-0.02298,-0.3545 -0.12637,-0.68605 -0.31019,-0.99463c-0.18054,-0.30855 -0.50385,-0.46283 -0.96995,-0.46283zM22.4441,26.12709c0,-0.19367 -0.07222,-0.36764 -0.21665,-0.52191c-0.14115,-0.15756 -0.46939,-0.28886 -0.98472,-0.3939c-0.59413,-0.12146 -1.06681,-0.29707 -1.41805,-0.52684c-0.35123,-0.23305 -0.52684,-0.57114 -0.52684,-1.01425c0,-0.42015 0.17889,-0.7845 0.53668,-1.09305c0.36107,-0.30855 0.84033,-0.46283 1.43777,-0.46283c0.63679,0 1.13408,0.16248 1.49189,0.48744c0.35779,0.32497 0.53668,0.71723 0.53668,1.1768h-0.91088c0,-0.21992 -0.09683,-0.42672 -0.2905,-0.62039c-0.19367,-0.19695 -0.46939,-0.29542 -0.82718,-0.29542c-0.37749,0 -0.64829,0.08206 -0.81241,0.24618c-0.16412,0.16412 -0.24618,0.34302 -0.24618,0.53669c0,0.19367 0.0755,0.35122 0.22649,0.47267c0.15428,0.11817 0.47924,0.23305 0.9749,0.34466c0.65324,0.14772 1.13904,0.34138 1.4574,0.58101c0.32168,0.23962 0.48253,0.5777 0.48253,1.01425c0,0.46939 -0.18874,0.85016 -0.56623,1.14231c-0.3742,0.29214 -0.8715,0.43821 -1.49189,0.43821c-0.70571,0 -1.24569,-0.18054 -1.61995,-0.54161c-0.3742,-0.36107 -0.5613,-0.76153 -0.5613,-1.20138h0.91581c0.0197,0.37749 0.16413,0.63844 0.43328,0.78287c0.27245,0.14115 0.54982,0.21172 0.83211,0.21172c0.37092,0 0.65485,-0.07221 0.8518,-0.21664c0.19695,-0.14443 0.29542,-0.32661 0.29542,-0.54653zM17.13634,27.54018c-0.05909,-0.12802 -0.10176,-0.31512 -0.12802,-0.5613c-0.17069,0.18054 -0.38405,0.33646 -0.64008,0.46776c-0.25604,0.12801 -0.54818,0.19202 -0.87642,0.19202c-0.54489,0 -0.98146,-0.15264 -1.30972,-0.45791c-0.32825,-0.30527 -0.49237,-0.67947 -0.49237,-1.12259c0,-0.57115 0.21664,-1.00445 0.64993,-1.2999c0.43329,-0.2987 1.01592,-0.44805 1.74791,-0.44805h0.90104v-0.42344c0,-0.31512 -0.09519,-0.56623 -0.28557,-0.75333c-0.1871,-0.19038 -0.46612,-0.28557 -0.83703,-0.28557c-0.34466,0 -0.62367,0.08534 -0.83703,0.25603c-0.21008,0.16741 -0.31512,0.36271 -0.31512,0.58592h-0.91088c0,-0.38076 0.19202,-0.73854 0.57607,-1.07333c0.38405,-0.33479 0.89776,-0.50219 1.54115,-0.50222c0.57771,0 1.05202,0.14771 1.42291,0.44314c0.37092,0.29542 0.55638,0.74184 0.55638,1.33925v2.39295c0,0.49237 0.06237,0.88299 0.1871,1.17185v0.0788zM15.62473,26.84102c0.32825,0 0.61218,-0.08206 0.8518,-0.24619c0.2429,-0.16412 0.41359,-0.3463 0.51207,-0.54652v-1.098h-0.84689c-1.02413,0.01969 -1.5362,0.34793 -1.5362,0.98472c0,0.25275 0.08535,0.46775 0.25604,0.64501c0.17069,0.17397 0.42508,0.26096 0.76317,0.26096zM12.58187,25.47223c0,0.66963 -0.21664,1.18169 -0.64993,1.5362c-0.43,0.3545 -1.00279,0.53176 -1.71837,0.53176h-2.5111v-7.16895h2.34865c0.73531,0 1.3081,0.15264 1.71837,0.45791c0.41359,0.30199 0.62039,0.78617 0.62039,1.45254c0,0.33153 -0.09519,0.62695 -0.28557,0.88626c-0.1871,0.25604 -0.44478,0.45463 -0.77302,0.59578c0.40375,0.1116 0.7123,0.32332 0.92566,0.63515c0.21664,0.31184 0.32496,0.66965 0.32496,1.07342zM8.65272,21.14919v2.27471h1.42786c0.40703,0 0.73527,-0.10176 0.98472,-0.30527c0.24947,-0.20352 0.3742,-0.48581 0.3742,-0.84689c0,-0.732 -0.44315,-1.1062 -1.32944,-1.12259zM11.63651,25.48204c0,-0.40047 -0.10996,-0.71559 -0.32989,-0.94536c-0.21664,-0.23305 -0.56622,-0.34958 -1.04874,-0.34958h-1.60518v2.57999h1.56078c0.4497,0 0.79928,-0.11489 1.04874,-0.34466c0.24947,-0.23306 0.3742,-0.54654 0.3742,-0.94043z" fill="#ffffff" stroke-width="0"></path><path d="M2,24c0,-12.15026 9.84974,-22 22,-22c12.15026,0 22,9.84974 22,22c0,12.15026 -9.84974,22 -22,22c-12.15026,0 -22,-9.84974 -22,-22z" id="base 1 9 1" fill="none" stroke-width="1"></path><path d="M2,24c0,-12.15026 9.84974,-22 22,-22c12.15026,0 22,9.84974 22,22c0,12.15026 -9.84974,22 -22,22c-12.15026,0 -22,-9.84974 -22,-22z" id="base 1 5 1" fill="none" stroke-width="1"></path><path d="M2,24c0,-12.15026 9.84974,-22 22,-22c12.15026,0 22,9.84974 22,22c0,12.15026 -9.84974,22 -22,22c-12.15026,0 -22,-9.84974 -22,-22z" id="base 1 1 1" fill="none" stroke-width="1"></path><g fill="#000000" stroke-width="1" font-family="Roboto, sans-serif" font-weight="400" font-size="14" text-anchor="start"></g><rect x="2" y="2" width="44" height="22" fill="none" stroke-width="1"></rect><path d="M2,24v-22h44v22z" fill="none" stroke-width="1"></path><path d="M2,24v-22h44v22z" fill="none" stroke-width="1"></path><path d="M2,24v-22h44v22z" fill="none" stroke-width="1"></path><path d="M2,24v-22h44v22z" fill="none" stroke-width="1"></path><g fill="#000000" stroke-width="1" font-family="Roboto, sans-serif" font-weight="400" font-size="14" text-anchor="start"></g><rect x="2" y="2" width="44" height="22" fill="none" stroke-width="1"></rect><path d="M2,24v-22h44v22z" fill="none" stroke-width="1"></path><path d="M2,24v-22h44v22z" fill="none" stroke-width="1"></path><path d="M2,24v-22h44v22z" fill="none" stroke-width="1"></path><path d="M2,24v-22h44v22z" fill="none" stroke-width="1"></path><g fill="#000000" stroke-width="1" font-family="Roboto, sans-serif" font-weight="400" font-size="14" text-anchor="start"><g><g></g></g></g><rect x="2" y="2" width="44" height="22" fill="none" stroke-width="1"></rect><path d="M2,24v-22h44v22z" fill="none" stroke-width="1"></path><path d="M2,24v-22h44v22z" fill="none" stroke-width="1"></path><path d="M2,24v-22h44v22z" fill="none" stroke-width="1"></path><path d="M2,24v-22h44v22z" fill="none" stroke-width="1"></path></g></svg>