<svg version="1.1" xmlns="http://www.w3.org/2000/svg" xmlns:xlink="http://www.w3.org/1999/xlink" width="48" height="48"><defs><linearGradient x1="12.76675" y1="12.76675" x2="59.62328" y2="59.62328" gradientUnits="userSpaceOnUse" id="color-1"><stop offset="0.2" stop-color="#000000" stop-opacity="0.4"></stop><stop offset="1" stop-color="#000000" stop-opacity="0"></stop></linearGradient><filter id="dropshadow-base"><feColorMatrix type="matrix" values="0 0 0 0 0  0 0 0 0 0  0 0 0 0 0  0 0 0 .8 0"></feColorMatrix> <feOffset dx="0" dy="1"></feOffset> <feGaussianBlur stdDeviation="1"></feGaussianBlur> <feComposite in="SourceGraphic"></feComposite></filter><filter id="dropshadow-banner" x="-10%" y="-10%" width="120%" height="130%"><feColorMatrix type="matrix" values="0 0 0 0 0  0 0 0 0 0  0 0 0 0 0  0 0 0 .4 0"></feColorMatrix> <feOffset dx="0" dy="1"></feOffset> <feGaussianBlur stdDeviation="0.5"></feGaussianBlur> <feComposite in="SourceGraphic"></feComposite></filter></defs><g fill="none" fill-rule="nonzero" stroke="none" stroke-width="none" stroke-linecap="butt" stroke-linejoin="miter" stroke-miterlimit="10" stroke-dasharray="" stroke-dashoffset="0" font-family="none" font-weight="none" font-size="none" text-anchor="none" style="mix-blend-mode: normal"><path d="M2,24c0,-12.15026 9.84974,-22 22,-22c12.15026,0 22,9.84974 22,22c0,12.15026 -9.84974,22 -22,22c-12.15026,0 -22,-9.84974 -22,-22z" id="base 1 5" fill="#2da8a1" stroke-width="1"></path><path d="M12.76675,25.02105h2.04209l-2.04209,-2.04209v-10.21221h10.21202l2.04208,2.04208v-2.04208h10.21241l10.7618,10.7618c0.0033,0.15675 0.00495,0.31391 0.00495,0.47146c0,12.15026 -9.84974,22 -22,22c-0.15748,0 -0.31457,-0.00165 -0.47126,-0.00495l-10.76199,-10.76199z" fill="url(#color-1)" stroke-width="1"></path><path d="M12.76675,35.23306h10.21201l0,-10.21201h-10.21201zM14.80903,27.06353h6.12725v6.11138l-6.12725,0zM16.85151,29.10581h2.04228v2.04248h-2.04228zM29.10561,33.19077h2.04268v2.04248h-2.04268zM33.19038,33.19077h2.04287v2.04248h-2.04287zM33.19058,27.06353h-2.04228v-2.04268h-6.12744v10.21221h2.04268v-6.12725h2.04209v2.04248h6.12744v-6.12725v-0.0002h-2.04248zM12.76675,22.97896h10.21201l0,-10.21221h-10.21201zM14.80903,14.80903h6.12725v6.12725h-6.12725zM16.85151,16.85151h2.04228v2.04248h-2.04228zM25.02085,12.76675v10.21221h10.2124v-10.21221zM33.19058,20.93628h-6.12705l0,-6.12725h6.12705zM29.10561,16.85151h2.04268v2.04248h-2.04268z" fill="none" stroke-width="0"></path><path d="M12.76675,25.02104h10.21201l0,10.21201h-10.21201zM14.80903,33.17491l6.12725,0v-6.11138h-6.12725zM16.85151,29.10581h2.04228v2.04248h-2.04228zM29.10561,33.19077h2.04268v2.04248h-2.04268zM33.19038,33.19077h2.04287v2.04248h-2.04287zM33.19058,25.02085h2.04248v6.12744h-6.12744v-2.04248h-2.04209v6.12725h-2.04268v-10.21221h6.12744v2.04268h2.04228zM12.76675,12.76675h10.21201l0,10.21221h-10.21201zM14.80903,20.93628h6.12725v-6.12725h-6.12725zM16.85151,16.85151h2.04228v2.04248h-2.04228zM35.23325,12.76675v10.21221h-10.2124v-10.21221zM33.19058,14.80903h-6.12705l0,6.12725h6.12705zM29.10561,16.85151h2.04268v2.04248h-2.04268z" fill="#ffffff" stroke-width="0"></path><path d="M2,24c0,-12.15026 9.84974,-22 22,-22c12.15026,0 22,9.84974 22,22c0,12.15026 -9.84974,22 -22,22c-12.15026,0 -22,-9.84974 -22,-22z" id="base 1 1 1" fill="none" stroke-width="1"></path><g fill="#000000" stroke-width="1" font-family="Roboto, sans-serif" font-weight="400" font-size="14" text-anchor="start"></g><rect x="2" y="2" width="44" height="22" fill="none" stroke-width="1"></rect><path d="M2,24v-22h44v22z" fill="none" stroke-width="1"></path><path d="M2,24v-22h44v22z" fill="none" stroke-width="1"></path><path d="M2,24v-22h44v22z" fill="none" stroke-width="1"></path><path d="M2,24v-22h44v22z" fill="none" stroke-width="1"></path></g></svg>